<?xml version="1.0" encoding="UTF-8"?>
<svg width="32" height="32" viewBox="0 0 100 100" xmlns="http://www.w3.org/2000/svg">
    <defs>
        <linearGradient id="grad1" x1="0%" y1="0%" x2="100%" y2="100%">
            <stop offset="0%" style="stop-color:#4338CA;stop-opacity:1" />
            <stop offset="100%" style="stop-color:#818CF8;stop-opacity:1" />
        </linearGradient>
        <linearGradient id="grad2" x1="0%" y1="0%" x2="100%" y2="100%">
            <stop offset="0%" style="stop-color:#FFFFFF;stop-opacity:1" />
            <stop offset="100%" style="stop-color:#E0E7FF;stop-opacity:1" />
        </linearGradient>
    </defs>    <!-- Fondo circular con borde -->
    <circle cx="50" cy="50" r="48" fill="url(#grad1)" stroke="#4338CA" stroke-width="2"/>
      <!-- Nube decorativa -->
    <path d="M 30,25
             C 25,25 20,28 20,32
             C 20,35 22,37 25,38
             C 25,40 27,42 30,42
             L 70,42
             C 73,42 75,40 75,38
             C 78,37 80,35 80,32
             C 80,28 75,25 70,25
             C 68,20 63,18 58,18
             C 53,18 48,20 46,25
             Z"          fill="#F0F9FF"
          stroke="#60A5FA"
          stroke-width="2"
          filter="drop-shadow(0 2px 2px rgba(0,0,0,0.2))"/>
          
    <!-- Detalles de la nube -->
    <path d="M 35,28
             C 33,28 31,30 31,32
             C 31,34 33,35 35,35
             Z
             M 65,28
             C 67,28 69,30 69,32
             C 69,34 67,35 65,35
             Z"
          fill="#BFDBFE"
          opacity="0.7"/>
    
    <!-- Forma de almohada -->
    <path d="M 25,30 
             C 20,30 15,35 15,40
             L 15,60
             C 15,65 20,70 25,70
             L 75,70
             C 80,70 85,65 85,60
             L 85,40
             C 85,35 80,30 75,30
             Z" 
          fill="url(#grad2)"
          stroke="#E0E7FF"
          stroke-width="2"/>    <!-- Letra E -->
    <path d="M 30,45 
             h 15 
             v 4 
             h -11
             v 6
             h 9
             v 4
             h -9
             v 6
             h 11
             v 4
             h -15
             z" 
          fill="#4F46E5"/>
      <!-- Letra H -->
    <path d="M 55,45
             v 24
             h 4
             v -10
             h 6
             v 10
             h 4
             v -24
             h -4
             v 10
             h -6
             v -10
             h -4
             z"
          fill="#4F46E5"/>
</svg>
